<mxfile host="65bd71144e">
    <diagram id="z4u7fsrhRcxmxhqH8nIM" name="Page-1">
        <mxGraphModel dx="1670" dy="938" grid="1" gridSize="10" guides="1" tooltips="1" connect="1" arrows="1" fold="1" page="1" pageScale="1" pageWidth="850" pageHeight="1100" math="0" shadow="0">
            <root>
                <mxCell id="0"/>
                <mxCell id="1" parent="0"/>
                <mxCell id="2" value="Animation sequence" style="swimlane;startSize=20;horizontal=1;containerType=tree;" vertex="1" parent="1">
                    <mxGeometry x="620" y="585" width="210" height="110" as="geometry"/>
                </mxCell>
                <mxCell id="13" value="&lt;ul&gt;&lt;li&gt;load_png_sequence&lt;/li&gt;&lt;li&gt;sequence_current_frame&lt;/li&gt;&lt;/ul&gt;" style="text;strokeColor=none;fillColor=none;html=1;whiteSpace=wrap;verticalAlign=middle;overflow=hidden;" vertex="1" parent="2">
                    <mxGeometry y="30" width="210" height="80" as="geometry"/>
                </mxCell>
                <mxCell id="15" value="Interaction" style="swimlane;startSize=20;horizontal=1;containerType=tree;" vertex="1" parent="1">
                    <mxGeometry x="90" y="830" width="210" height="270" as="geometry"/>
                </mxCell>
                <mxCell id="16" value="&lt;ul&gt;&lt;li&gt;&lt;span style=&quot;background-color: initial;&quot;&gt;get_key_to_node&lt;/span&gt;&lt;br&gt;&lt;/li&gt;&lt;li&gt;load_scene_interactions&lt;/li&gt;&lt;li&gt;DiologBox&lt;/li&gt;&lt;ul&gt;&lt;li&gt;set_tex&lt;/li&gt;&lt;li&gt;wrap_text&lt;/li&gt;&lt;li&gt;render_bg&lt;/li&gt;&lt;li&gt;render_text&lt;/li&gt;&lt;/ul&gt;&lt;li&gt;DialogueManager&lt;/li&gt;&lt;ul&gt;&lt;li&gt;find_node&lt;/li&gt;&lt;li&gt;handle_eevent&lt;/li&gt;&lt;li&gt;draw&lt;/li&gt;&lt;/ul&gt;&lt;/ul&gt;" style="text;strokeColor=none;fillColor=none;html=1;whiteSpace=wrap;verticalAlign=middle;overflow=hidden;" vertex="1" parent="15">
                    <mxGeometry y="20" width="210" height="250" as="geometry"/>
                </mxCell>
                <mxCell id="24" value="Inventory" style="swimlane;startSize=20;horizontal=1;containerType=tree;" vertex="1" parent="1">
                    <mxGeometry x="580" y="830" width="210" height="170" as="geometry"/>
                </mxCell>
                <mxCell id="25" value="&lt;ul&gt;&lt;li&gt;Item&lt;/li&gt;&lt;li&gt;Invenctory&lt;/li&gt;&lt;ul&gt;&lt;li&gt;add_item&lt;/li&gt;&lt;li&gt;remove_item&lt;/li&gt;&lt;li&gt;has_item&lt;/li&gt;&lt;li&gt;display&lt;/li&gt;&lt;/ul&gt;&lt;/ul&gt;" style="text;strokeColor=none;fillColor=none;html=1;whiteSpace=wrap;verticalAlign=middle;overflow=hidden;" vertex="1" parent="24">
                    <mxGeometry y="20" width="210" height="140" as="geometry"/>
                </mxCell>
                <mxCell id="26" value="Floor_1" style="swimlane;startSize=20;horizontal=1;containerType=tree;" vertex="1" parent="1">
                    <mxGeometry x="340" y="830" width="200" height="120" as="geometry"/>
                </mxCell>
                <mxCell id="27" value="&lt;ul&gt;&lt;li&gt;Floor_1&lt;/li&gt;&lt;ul&gt;&lt;li&gt;handle_events&lt;/li&gt;&lt;li&gt;update&lt;/li&gt;&lt;li&gt;render&lt;/li&gt;&lt;/ul&gt;&lt;/ul&gt;" style="text;strokeColor=none;fillColor=none;html=1;whiteSpace=wrap;verticalAlign=middle;overflow=hidden;" vertex="1" parent="26">
                    <mxGeometry y="20" width="210" height="100" as="geometry"/>
                </mxCell>
                <mxCell id="32" value="main_menu" style="swimlane;startSize=20;horizontal=1;containerType=tree;" vertex="1" parent="1">
                    <mxGeometry x="333.75" y="10" width="210" height="120" as="geometry"/>
                </mxCell>
                <mxCell id="33" value="&lt;ul&gt;&lt;li&gt;MainMenu&lt;/li&gt;&lt;ul&gt;&lt;li&gt;draw&lt;/li&gt;&lt;li&gt;handle_event&lt;/li&gt;&lt;/ul&gt;&lt;/ul&gt;" style="text;strokeColor=none;fillColor=none;html=1;whiteSpace=wrap;verticalAlign=middle;overflow=hidden;" vertex="1" parent="32">
                    <mxGeometry x="2.5" y="20" width="210" height="100" as="geometry"/>
                </mxCell>
                <mxCell id="34" value="new_game" style="swimlane;startSize=20;horizontal=1;containerType=tree;" vertex="1" parent="1">
                    <mxGeometry x="335" y="190" width="215" height="130" as="geometry"/>
                </mxCell>
                <mxCell id="35" value="&lt;ul&gt;&lt;li&gt;NewGame&lt;/li&gt;&lt;ul&gt;&lt;li&gt;handle_event&lt;/li&gt;&lt;li&gt;draw_ui&lt;/li&gt;&lt;li&gt;draw-character_creator&lt;/li&gt;&lt;/ul&gt;&lt;/ul&gt;" style="text;strokeColor=none;fillColor=none;html=1;whiteSpace=wrap;verticalAlign=middle;overflow=hidden;" vertex="1" parent="34">
                    <mxGeometry y="20" width="210" height="100" as="geometry"/>
                </mxCell>
                <mxCell id="36" value="options_menu" style="swimlane;startSize=20;horizontal=1;containerType=tree;" vertex="1" parent="1">
                    <mxGeometry x="90" y="190" width="210" height="100" as="geometry"/>
                </mxCell>
                <mxCell id="37" value="&lt;ul&gt;&lt;li&gt;OptionsMenu&lt;/li&gt;&lt;ul&gt;&lt;li&gt;handle_event&lt;/li&gt;&lt;li&gt;draw&lt;/li&gt;&lt;/ul&gt;&lt;/ul&gt;" style="text;strokeColor=none;fillColor=none;html=1;whiteSpace=wrap;verticalAlign=middle;overflow=hidden;" vertex="1" parent="36">
                    <mxGeometry y="20" width="210" height="80" as="geometry"/>
                </mxCell>
                <mxCell id="39" value="PauseMenu" style="swimlane;startSize=20;horizontal=1;containerType=tree;" vertex="1" parent="1">
                    <mxGeometry x="580" y="190" width="210" height="80" as="geometry"/>
                </mxCell>
                <mxCell id="40" value="&lt;ul&gt;&lt;li&gt;handle_event&lt;/li&gt;&lt;li&gt;draw&lt;/li&gt;&lt;/ul&gt;" style="text;strokeColor=none;fillColor=none;html=1;whiteSpace=wrap;verticalAlign=middle;overflow=hidden;" vertex="1" parent="39">
                    <mxGeometry y="20" width="210" height="60" as="geometry"/>
                </mxCell>
                <mxCell id="57" style="edgeStyle=none;html=1;entryX=0.5;entryY=0;entryDx=0;entryDy=0;" edge="1" parent="1" source="41" target="45">
                    <mxGeometry relative="1" as="geometry"/>
                </mxCell>
                <mxCell id="41" value="room_101" style="swimlane;startSize=20;horizontal=1;containerType=tree;" vertex="1" parent="1">
                    <mxGeometry x="335" y="350" width="210" height="110" as="geometry"/>
                </mxCell>
                <mxCell id="42" value="&lt;ul&gt;&lt;li&gt;Room101&lt;/li&gt;&lt;li&gt;handle_event&lt;/li&gt;&lt;li&gt;draw&lt;/li&gt;&lt;/ul&gt;" style="text;strokeColor=none;fillColor=none;html=1;whiteSpace=wrap;verticalAlign=middle;overflow=hidden;" vertex="1" parent="41">
                    <mxGeometry y="20" width="210" height="90" as="geometry"/>
                </mxCell>
                <mxCell id="43" value="npc " style="swimlane;startSize=20;horizontal=1;containerType=tree;" vertex="1" parent="1">
                    <mxGeometry x="50" y="560" width="210" height="120" as="geometry"/>
                </mxCell>
                <mxCell id="44" value="&lt;ul&gt;&lt;li&gt;Interactable&lt;/li&gt;&lt;li&gt;Object(Interactable)&lt;/li&gt;&lt;li&gt;NPC(Unteractable)&lt;/li&gt;&lt;ul&gt;&lt;li&gt;speak&lt;/li&gt;&lt;/ul&gt;&lt;/ul&gt;" style="text;strokeColor=none;fillColor=none;html=1;whiteSpace=wrap;verticalAlign=middle;overflow=hidden;" vertex="1" parent="43">
                    <mxGeometry y="20" width="210" height="100" as="geometry"/>
                </mxCell>
                <mxCell id="53" style="edgeStyle=none;html=1;entryX=1;entryY=0.5;entryDx=0;entryDy=0;" edge="1" parent="1" source="45" target="44">
                    <mxGeometry relative="1" as="geometry"/>
                </mxCell>
                <mxCell id="59" style="edgeStyle=none;html=1;entryX=0.5;entryY=0;entryDx=0;entryDy=0;exitX=0.5;exitY=1;exitDx=0;exitDy=0;" edge="1" parent="1" source="45" target="15">
                    <mxGeometry relative="1" as="geometry"/>
                </mxCell>
                <mxCell id="63" style="edgeStyle=none;html=1;entryX=0.5;entryY=0;entryDx=0;entryDy=0;exitX=0.5;exitY=1;exitDx=0;exitDy=0;" edge="1" parent="1" source="45" target="24">
                    <mxGeometry relative="1" as="geometry"/>
                </mxCell>
                <mxCell id="66" style="edgeStyle=none;html=1;entryX=0.5;entryY=0;entryDx=0;entryDy=0;" edge="1" parent="1" source="45" target="26">
                    <mxGeometry relative="1" as="geometry"/>
                </mxCell>
                <mxCell id="45" value="player " style="swimlane;startSize=20;horizontal=1;containerType=tree;" vertex="1" parent="1">
                    <mxGeometry x="335" y="510" width="210" height="250" as="geometry"/>
                </mxCell>
                <mxCell id="46" value="&lt;ul&gt;&lt;li&gt;Player&lt;/li&gt;&lt;ul&gt;&lt;li&gt;get_position&lt;/li&gt;&lt;li&gt;handle_movement&lt;/li&gt;&lt;li&gt;get_skills&lt;/li&gt;&lt;li&gt;get_skills_decription&lt;/li&gt;&lt;li&gt;set_skills&lt;/li&gt;&lt;li&gt;roll_skill_scheck&lt;/li&gt;&lt;li&gt;reduce_attribute&lt;/li&gt;&lt;li&gt;raise_experience&lt;/li&gt;&lt;li&gt;draw&lt;/li&gt;&lt;/ul&gt;&lt;/ul&gt;" style="text;strokeColor=none;fillColor=none;html=1;whiteSpace=wrap;verticalAlign=middle;overflow=hidden;" vertex="1" parent="45">
                    <mxGeometry y="20" width="210" height="220" as="geometry"/>
                </mxCell>
                <mxCell id="52" style="edgeStyle=none;html=1;entryX=0;entryY=0.5;entryDx=0;entryDy=0;" edge="1" parent="1" source="46" target="2">
                    <mxGeometry relative="1" as="geometry"/>
                </mxCell>
                <mxCell id="60" style="edgeStyle=none;html=1;exitX=0.5;exitY=1;exitDx=0;exitDy=0;entryX=0.5;entryY=0;entryDx=0;entryDy=0;" edge="1" parent="1" source="33" target="36">
                    <mxGeometry relative="1" as="geometry"/>
                </mxCell>
                <mxCell id="61" style="edgeStyle=none;html=1;entryX=0.5;entryY=0;entryDx=0;entryDy=0;exitX=0.5;exitY=1;exitDx=0;exitDy=0;" edge="1" parent="1" source="33" target="39">
                    <mxGeometry relative="1" as="geometry"/>
                </mxCell>
                <mxCell id="64" style="edgeStyle=none;html=1;entryX=0.5;entryY=0;entryDx=0;entryDy=0;" edge="1" parent="1" source="33" target="34">
                    <mxGeometry relative="1" as="geometry"/>
                </mxCell>
                <mxCell id="65" style="edgeStyle=none;html=1;entryX=0.5;entryY=0;entryDx=0;entryDy=0;" edge="1" parent="1" source="35" target="41">
                    <mxGeometry relative="1" as="geometry"/>
                </mxCell>
            </root>
        </mxGraphModel>
    </diagram>
</mxfile>